<?xml version="1.0" standalone="no"?>
<!DOCTYPE svg PUBLIC "-//W3C//DTD SVG 20010904//EN"
 "http://www.w3.org/TR/2001/REC-SVG-20010904/DTD/svg10.dtd">
<svg version="1.0" xmlns="http://www.w3.org/2000/svg"
 width="512.000000pt" height="512.000000pt" viewBox="0 0 512.000000 512.000000"
 preserveAspectRatio="xMidYMid meet">

<g transform="translate(0.000000,512.000000) scale(0.100000,-0.100000)"
fill="#000000" stroke="none">
<path d="M2420 5114 c-14 -2 -52 -9 -85 -15 -418 -73 -694 -384 -790 -888 -8
-42 -15 -91 -15 -108 0 -25 -6 -36 -27 -47 -38 -19 -69 -54 -88 -98 -20 -49
-21 -215 -1 -262 13 -32 12 -38 -10 -82 -22 -43 -24 -59 -24 -188 0 -161 11
-199 73 -253 45 -40 97 -57 157 -51 l47 5 6 -116 c3 -64 15 -151 27 -195 39
-152 136 -309 249 -404 l51 -43 0 -78 0 -78 -87 -23 c-194 -51 -602 -190 -748
-255 -110 -49 -222 -124 -277 -185 -98 -108 -191 -322 -236 -545 -25 -122
-157 -1113 -149 -1121 9 -9 121 -22 128 -15 3 3 34 220 68 481 34 261 71 522
81 580 37 197 94 358 170 475 54 81 82 105 193 165 l77 42 0 -305 0 -305 -26
-6 c-46 -12 -148 -123 -175 -191 -23 -60 -24 -63 -27 -507 l-3 -448 25 -25 25
-25 1529 0 c1491 0 1530 0 1553 19 l24 19 3 384 c2 218 -2 419 -7 467 -17 140
-75 235 -178 293 l-53 30 0 294 c0 197 3 294 10 294 17 0 89 -39 151 -81 92
-62 162 -176 224 -362 49 -148 60 -209 135 -775 38 -283 70 -515 72 -517 4 -4
128 12 133 17 3 3 -89 702 -125 958 -34 238 -79 389 -163 554 -84 165 -177
247 -392 346 -105 48 -457 170 -652 226 l-173 49 0 74 0 74 74 69 c166 153
244 326 253 564 l6 132 56 -5 c79 -7 154 32 196 101 30 49 30 50 30 200 0 139
-2 154 -23 191 -22 39 -23 42 -7 100 38 146 3 294 -79 333 -32 16 -30 11 -46
122 -26 172 -92 361 -176 502 -59 98 -212 256 -297 307 -80 47 -207 96 -302
116 -76 16 -330 29 -385 19z m100 -410 l0 -277 -41 7 c-55 9 -112 39 -165 88
l-44 41 2 191 3 190 40 9 c58 13 135 24 173 26 l32 1 0 -276z m313 239 l67
-17 0 -182 0 -181 -46 -43 c-46 -43 -103 -73 -161 -85 l-33 -7 0 275 0 274 53
-8 c28 -5 82 -16 120 -26z m-703 -235 l0 -171 32 -50 c81 -126 244 -202 433
-200 178 1 332 75 413 199 l32 47 0 159 0 159 23 -12 c12 -6 60 -51 107 -98
124 -126 201 -272 250 -481 17 -69 39 -225 40 -277 0 -23 40 -53 70 -53 39 0
50 -23 50 -104 0 -87 -5 -96 -50 -96 -45 0 -97 -17 -129 -42 -23 -17 -63 -18
-847 -18 -589 0 -825 3 -830 11 -12 20 -89 49 -132 49 -36 0 -44 4 -52 26 -13
33 -13 89 1 137 9 33 13 37 43 37 51 0 68 26 76 122 29 311 140 568 313 724
50 45 134 103 150 104 4 0 7 -77 7 -172z m-495 -1133 c24 -23 25 -30 25 -145
0 -107 -2 -122 -20 -140 -29 -29 -72 -30 -102 -3 -15 14 -18 35 -18 144 0 126
0 128 26 148 35 27 59 26 89 -4z m1940 0 c24 -23 25 -30 25 -140 0 -64 -4
-125 -10 -135 -25 -47 -101 -41 -127 10 -15 30 -17 180 -3 231 16 59 74 76
115 34z m-258 -357 c-5 -350 -7 -364 -78 -508 -59 -118 -162 -221 -279 -278
-130 -64 -175 -72 -400 -72 -223 0 -280 10 -398 67 -113 55 -234 177 -291 293
-64 131 -71 181 -71 518 l0 292 761 0 761 0 -5 -312z m-1016 -984 c64 -13 123
-15 297 -12 203 4 222 6 295 31 43 15 80 27 82 27 3 0 5 -22 5 -50 0 -50 -1
-50 -212 -320 -116 -149 -214 -267 -218 -263 -4 4 -100 126 -213 270 l-207
262 0 55 0 55 45 -19 c25 -11 82 -27 126 -36z m-7 -485 c143 -181 262 -329
265 -329 3 1 121 149 261 330 140 181 260 329 265 329 6 0 75 -19 155 -42
l145 -42 3 -398 2 -397 -835 0 -835 0 0 273 c0 149 3 329 7 398 l6 126 141 41
c78 22 146 40 151 41 6 0 127 -148 269 -330z m-680 -675 c29 -21 1863 -21
1892 0 18 14 19 33 24 444 l5 429 112 -40 112 -39 3 -368 c3 -414 1 -399 80
-420 51 -14 106 -64 132 -120 20 -43 21 -65 24 -432 l3 -388 -1440 0 -1441 0
0 373 c0 419 4 447 64 509 19 20 57 44 83 53 88 32 83 8 83 424 l0 367 118 41
117 40 5 -429 c5 -411 6 -430 24 -444z"/>
<path d="M1280 865 l0 -65 188 2 187 3 0 60 0 60 -187 3 -188 2 0 -65z"/>
<path d="M3460 865 l0 -65 185 0 185 0 0 65 0 65 -185 0 -185 0 0 -65z"/>
</g>
</svg>
