<?xml version="1.0" standalone="no"?>
<!DOCTYPE svg PUBLIC "-//W3C//DTD SVG 20010904//EN"
 "http://www.w3.org/TR/2001/REC-SVG-20010904/DTD/svg10.dtd">
<svg version="1.0" xmlns="http://www.w3.org/2000/svg"
 width="512.000000pt" height="512.000000pt" viewBox="0 0 512.000000 512.000000"
 preserveAspectRatio="xMidYMid meet">

<g transform="translate(0.000000,512.000000) scale(0.100000,-0.100000)"
fill="#000000" stroke="none">
<path d="M725 5110 c-357 -56 -634 -316 -706 -663 -57 -280 23 -547 226 -753
138 -140 284 -215 478 -245 196 -31 451 31 603 147 l47 36 170 -170 171 -171
-41 -53 c-152 -201 -226 -421 -226 -678 0 -257 74 -477 226 -678 l41 -53 -171
-171 -170 -170 -47 36 c-152 116 -407 178 -603 147 -194 -30 -340 -105 -478
-245 -203 -206 -283 -473 -226 -753 65 -315 298 -559 616 -644 112 -30 297
-30 410 0 558 147 810 796 494 1270 l-50 75 170 170 169 169 69 -52 c88 -66
245 -144 356 -176 328 -93 684 -30 961 169 l79 58 169 -169 169 -169 -50 -75
c-276 -414 -123 -981 324 -1204 133 -66 223 -88 375 -88 96 0 143 5 205 22
318 85 551 329 616 644 57 280 -23 547 -226 753 -138 140 -284 215 -478 245
-196 31 -451 -31 -603 -147 l-47 -36 -169 169 -170 170 54 71 c224 297 279
718 141 1066 -40 100 -107 219 -160 284 l-36 44 170 170 170 170 47 -36 c152
-116 407 -178 603 -147 194 30 340 105 478 245 203 206 283 473 226 753 -65
315 -298 559 -616 644 -112 30 -297 30 -410 0 -292 -77 -512 -292 -601 -586
-36 -121 -39 -317 -6 -437 24 -88 77 -199 129 -272 l35 -49 -169 -169 -170
-170 -79 58 c-277 199 -633 262 -961 169 -111 -32 -268 -110 -356 -176 l-69
-52 -169 169 -170 170 50 75 c276 414 123 981 -324 1204 -49 25 -125 54 -169
65 -94 24 -238 32 -321 20z m282 -174 c120 -31 209 -82 301 -170 179 -170 248
-416 187 -657 -25 -95 -92 -228 -108 -212 -4 3 -7 21 -7 38 0 93 -70 235 -157
322 l-63 62 22 48 c17 38 22 68 22 143 1 88 -1 100 -31 161 -94 190 -333 267
-513 165 -61 -34 -127 -106 -157 -170 -25 -53 -28 -73 -28 -156 0 -76 4 -104
22 -143 l22 -48 -62 -62 c-87 -88 -139 -192 -162 -330 -3 -21 -10 -35 -14 -32
-16 9 -89 170 -102 225 -7 30 -13 105 -14 165 0 191 59 331 199 471 111 111
218 167 368 194 69 12 200 5 275 -14z m3444 -1 c118 -30 206 -81 300 -175 145
-144 204 -282 204 -475 -1 -60 -7 -135 -14 -165 -13 -55 -86 -216 -102 -225
-4 -3 -11 11 -14 32 -23 138 -75 242 -162 330 l-62 62 22 48 c18 39 22 67 22
143 0 83 -3 103 -28 156 -30 64 -96 136 -157 170 -57 33 -124 47 -202 43 -137
-7 -257 -90 -316 -217 -24 -50 -27 -69 -26 -152 0 -75 5 -105 22 -143 l22 -48
-63 -62 c-87 -87 -157 -229 -157 -322 0 -17 -3 -35 -7 -38 -16 -16 -83 117
-108 212 -61 240 9 487 187 657 95 92 202 150 318 173 30 6 64 13 75 15 37 9
182 -3 246 -19z m-3493 -249 c112 -77 121 -248 18 -333 -86 -70 -196 -69 -276
3 -108 98 -87 273 40 342 64 34 160 29 218 -12z m3423 11 c126 -67 147 -244
39 -341 -80 -72 -190 -73 -276 -3 -116 96 -88 292 51 353 49 22 135 17 186 -9z
m-3716 -511 c31 -22 124 -46 175 -46 52 0 141 24 176 47 21 14 26 13 52 -6
108 -77 162 -204 162 -382 l0 -78 -52 -30 c-29 -16 -89 -42 -133 -57 -67 -23
-98 -27 -190 -28 -137 -1 -214 15 -319 69 l-81 41 -3 93 c-5 157 33 259 130
346 56 50 56 50 83 31z m3440 0 c31 -22 124 -46 175 -46 52 0 141 24 176 47
21 13 26 13 51 -5 115 -83 167 -208 161 -384 l-3 -82 -81 -41 c-105 -54 -182
-70 -319 -69 -92 1 -123 5 -190 28 -44 15 -104 41 -132 57 l-53 30 0 78 c0
162 42 275 133 357 55 49 55 49 82 30z m-1318 -695 c596 -147 904 -808 632
-1356 -21 -44 -61 -109 -87 -144 l-47 -63 -7 103 c-13 201 -77 341 -225 487
l-93 92 26 53 c72 141 72 285 -1 433 -62 127 -184 220 -329 251 -385 81 -696
-323 -522 -678 l33 -66 -53 -41 c-74 -58 -147 -149 -193 -244 -49 -101 -67
-167 -76 -287 -8 -90 -8 -91 -27 -74 -34 30 -117 174 -148 255 -126 327 -69
682 156 960 100 124 272 243 429 296 52 18 84 25 205 46 54 10 249 -4 327 -23z
m-94 -324 c242 -111 249 -446 13 -567 -61 -31 -78 -35 -145 -35 -61 0 -87 5
-131 26 -118 56 -184 160 -184 289 1 92 26 155 87 218 97 101 234 127 360 69z
m-225 -756 c108 -22 219 -5 320 49 l52 28 59 -44 c101 -75 177 -194 206 -319
11 -46 15 -107 13 -208 l-3 -142 -62 -37 c-310 -187 -714 -180 -1015 19 l-38
26 0 121 c1 151 19 255 59 339 34 72 111 162 180 212 l43 32 67 -33 c36 -18
90 -37 119 -43z m-1423 -925 c215 -68 379 -236 446 -456 45 -144 28 -343 -42
-483 -51 -103 -69 -117 -69 -52 0 92 -69 233 -158 324 l-63 64 23 51 c18 41
23 69 23 141 0 78 -4 98 -29 152 -33 73 -113 154 -181 184 -259 114 -541 -80
-523 -360 3 -45 14 -95 26 -123 l21 -47 -67 -68 c-91 -92 -134 -182 -157 -327
l-7 -39 -19 29 c-30 44 -67 130 -84 196 -67 256 21 524 226 695 69 57 195 118
284 137 101 23 247 15 350 -18z m3373 18 c263 -53 474 -267 528 -534 32 -161
-7 -365 -95 -494 l-19 -29 -7 39 c-23 145 -66 235 -157 327 l-67 68 21 47 c12
28 23 78 26 123 18 280 -264 474 -523 360 -68 -30 -148 -111 -181 -184 -25
-54 -29 -74 -29 -152 0 -72 5 -100 23 -141 l23 -51 -63 -64 c-89 -91 -158
-232 -158 -324 0 -65 -18 -51 -69 52 -70 140 -87 339 -42 483 105 344 441 545
789 474z m-3470 -251 c23 -13 55 -43 70 -65 23 -36 27 -52 27 -114 0 -64 -3
-77 -30 -116 -42 -59 -103 -91 -174 -91 -122 0 -211 88 -211 208 0 166 172
262 318 178z m3432 7 c70 -36 110 -104 110 -185 0 -207 -265 -287 -385 -117
-27 39 -30 52 -30 116 0 62 4 78 27 113 62 93 178 124 278 73z m-3665 -533
c75 -30 182 -28 264 6 73 30 77 29 138 -35 80 -82 113 -182 113 -339 l0 -75
-42 -25 c-115 -65 -217 -93 -348 -93 -132 0 -233 28 -349 94 l-43 25 4 115 c7
154 28 211 114 298 49 50 67 63 81 57 10 -4 41 -17 68 -28z m3440 0 c75 -30
182 -28 264 6 75 31 78 30 149 -48 72 -78 94 -141 100 -285 l4 -115 -43 -25
c-116 -66 -217 -94 -349 -94 -132 0 -232 27 -349 94 l-44 25 6 115 c7 154 30
213 113 299 49 50 67 62 81 56 10 -4 41 -17 68 -28z"/>
</g>
</svg>
