<?xml version="1.0" standalone="no"?>
<!DOCTYPE svg PUBLIC "-//W3C//DTD SVG 20010904//EN"
 "http://www.w3.org/TR/2001/REC-SVG-20010904/DTD/svg10.dtd">
<svg version="1.0" xmlns="http://www.w3.org/2000/svg"
 width="512.000000pt" height="512.000000pt" viewBox="0 0 512.000000 512.000000"
 preserveAspectRatio="xMidYMid meet">

<g transform="translate(0.000000,512.000000) scale(0.100000,-0.100000)"
fill="#000000" stroke="none">
<path d="M2839 4952 c-244 -64 -400 -316 -348 -564 51 -245 299 -418 543 -379
262 42 449 295 406 549 -48 288 -321 467 -601 394z m279 -138 c228 -111 278
-405 100 -583 -161 -163 -426 -136 -555 56 -137 205 -33 482 206 550 72 20
182 10 249 -23z"/>
<path d="M4007 4712 c-9 -10 -36 -63 -60 -118 l-42 -99 -70 -32 c-173 -81
-186 -92 -170 -139 8 -22 30 -35 120 -74 121 -53 112 -43 177 -188 32 -72 46
-94 65 -98 47 -12 66 8 113 120 24 59 49 111 55 115 5 4 57 27 114 52 109 46
129 66 117 112 -4 19 -27 34 -113 72 -60 26 -113 52 -119 59 -7 6 -30 54 -53
106 -23 52 -49 102 -58 112 -21 23 -55 23 -76 0z m67 -257 c23 -51 31 -58 86
-84 l61 -27 -61 -27 c-58 -25 -62 -29 -88 -88 l-26 -62 -28 62 c-26 59 -31 64
-87 88 l-60 26 60 28 c54 26 62 34 85 84 14 30 27 55 29 55 2 0 15 -25 29 -55z"/>
<path d="M1689 3926 c-16 -8 -39 -46 -72 -123 l-49 -111 -101 -42 c-119 -50
-137 -64 -137 -100 0 -37 19 -51 137 -101 l101 -44 47 -108 c80 -182 118 -183
195 -3 l46 109 110 48 c120 52 147 78 127 121 -8 18 -41 37 -123 73 -102 44
-114 52 -127 84 -8 20 -32 72 -53 117 -40 86 -59 101 -101 80z m135 -347 c30
-13 56 -27 56 -30 0 -3 -25 -16 -56 -29 -52 -21 -58 -27 -84 -84 l-27 -61 -29
60 c-26 53 -35 63 -81 84 -29 14 -53 28 -53 31 0 4 24 16 54 29 50 20 56 27
82 84 l27 62 27 -61 c25 -56 32 -62 84 -85z"/>
<path d="M2791 3799 c-203 -40 -416 -167 -544 -326 -143 -177 -213 -385 -206
-609 4 -91 7 -105 34 -150 19 -30 49 -60 79 -79 l49 -30 746 -3 c837 -3 794
-6 870 70 61 62 75 115 68 257 -21 428 -319 777 -740 866 -75 16 -283 18 -356
4z m365 -129 c294 -75 510 -292 594 -595 6 -22 13 -87 17 -146 5 -86 3 -111
-11 -140 -34 -73 8 -69 -791 -69 -786 0 -758 -2 -790 60 -22 43 -20 198 5 296
76 299 296 519 595 595 101 25 278 25 381 -1z"/>
<path d="M4466 2400 c-63 -11 -119 -38 -681 -332 -259 -135 -503 -262 -543
-282 l-72 -36 6 37 c8 51 -12 156 -43 220 -52 111 -169 205 -288 232 -50 11
-863 51 -1083 52 -85 1 -129 -3 -160 -15 -24 -8 -197 -96 -385 -193 -188 -98
-347 -179 -354 -181 -7 -2 -30 32 -52 76 -58 114 -107 151 -190 139 -41 -5
-392 -185 -428 -219 -28 -26 -46 -80 -41 -121 2 -18 183 -378 403 -801 446
-856 424 -822 524 -820 51 0 73 9 245 100 210 110 236 133 244 212 3 41 -2 59
-42 137 -25 49 -46 90 -46 92 0 12 87 43 119 43 23 0 231 -41 463 -91 469
-101 560 -113 668 -85 41 11 171 72 355 168 1247 649 1676 874 1711 899 72 49
133 143 160 244 50 184 -45 393 -216 480 -83 42 -190 59 -274 45z m199 -144
c71 -32 120 -78 152 -144 39 -78 40 -193 4 -267 -51 -102 -40 -95 -1083 -638
-537 -280 -998 -515 -1025 -524 -83 -26 -185 -12 -639 86 -470 102 -510 106
-593 65 -30 -15 -56 -23 -61 -18 -7 8 -389 735 -481 916 l-28 56 351 183 c193
101 372 188 397 195 37 9 156 7 576 -12 292 -12 547 -25 568 -29 91 -14 189
-91 227 -179 75 -169 -19 -370 -197 -422 -48 -14 -89 -14 -427 1 -390 17 -408
16 -421 -24 -8 -26 10 -68 32 -75 10 -3 186 -12 390 -21 280 -13 385 -14 424
-6 80 17 159 61 222 124 53 53 108 84 710 398 359 187 675 347 702 354 62 18
133 11 200 -19z m-3998 -268 c28 -36 784 -1501 781 -1515 -4 -19 -352 -206
-376 -201 -18 4 -804 1505 -800 1528 3 16 341 199 369 200 9 0 21 -6 26 -12z"/>
</g>
</svg>
